<?xml version="1.0" encoding="utf-8"?>
<!-- Generator: Adobe Illustrator 22.1.0, SVG Export Plug-In . SVG Version: 6.00 Build 0)  -->
<svg version="1.1" id="Layer_1" xmlns="http://www.w3.org/2000/svg" xmlns:xlink="http://www.w3.org/1999/xlink" x="0px" y="0px"
	 viewBox="0 0 400 400" style="enable-background:new 0 0 400 400;" xml:space="preserve">
<style type="text/css">
	.st0{fill:#F5F5F5;}
</style>
<g>
	<g id="XMLID_1_">
		<path d="M394.8,312.6v12.2h-26.2v-4.6c-26.1,0.7-53.5-11-83.7-35.6c-22.7-18.3-33.9-15.5-36.3-14.5v22l-0.4,0.2l-4.4,5.3
			c2,1.2,3.2,3.4,3.2,5.9c0,3.8-3.1,7-7,7h-25.7V325h-28.8v-14.6h-25.7c-3.8,0-7-3.1-7-7c0-2.5,1.3-4.7,3.2-5.9l-4.4-5.3l-0.4-0.2
			v-21.9c-1.1-0.4-3.7-1.2-8.2-0.5c-5.5,0.8-14.8,4.1-28,14.9c-29.5,24-56.3,35.7-81.8,35.7c-0.7,0-1.3,0-2,0v4.6H5.2v-12.3
			c0-0.1-0.8-12.8,13-14.9h0.1c3.4-0.2,6.4,0.1,9.5,0.3c5.8,0.5,11.7,0.9,21.8-0.9c14.5-2.5,27.7-12.4,47.3-34.8
			c2.1-2.3,3.9-4.6,5.7-6.7c13.9-16.6,22.5-26.7,48.8-22.5v-30.1l2.6-6c-0.7-0.9-2-2.8-2-4.6c0-1.5,1-3.3,1.7-4.4
			c-1-0.8-1.7-2-1.7-3.2c0-1.4,0.8-2.6,2-3.3c-0.9-1.9-2.4-6.1-2.4-14.4c0-6.2,1.2-9.2,2.2-12c0.9-2.2,1.6-4.2,1.6-7.6
			c0-7.5-3.2-12.5-3.2-12.5l-0.3-0.5l2.2-4.1c-1.3-1-2.2-2.6-2.2-4.5s0.9-3.5,2.2-4.6l-2.6-4.5V75h97.1v41.9l-2.6,4.5
			c1.4,1.1,2.2,2.7,2.2,4.6c0,1.8-0.8,3.4-2.1,4.5l2.1,4.1l-0.3,0.5c-0.1,0-3.2,5-3.2,12.5c0,3.4,0.7,5.4,1.6,7.6
			c1,2.6,2.2,5.8,2.2,12c0,8.3-1.6,12.6-2.4,14.4c1.2,0.7,2,1.9,2,3.3c0,1.4-0.7,2.5-1.7,3.2c0.7,1.1,1.7,2.9,1.7,4.4
			c0,1.7-1.3,3.7-2,4.6l2.6,6v30c26.3-4.2,34.8,5.9,48.7,22.5c1.9,2.1,3.7,4.3,5.7,6.7c19.5,22.5,32.7,32.3,47.3,34.8
			c10.1,1.8,16.1,1.3,21.8,0.9c3.1-0.2,6.1-0.4,9.5-0.3h0.1c7.3,1.1,10.4,5.1,11.8,8.2C394.7,309.4,394.5,312.5,394.8,312.6z
			 M392.6,312.6c0-0.5,0.7-11.1-11.2-12.8c-3.3-0.2-6.2,0.1-9.2,0.3c-5.9,0.5-12,1-22.3-0.9c-17.4-3.1-31.9-16.5-48.4-35.5
			c-2.1-2.3-3.9-4.6-5.7-6.7c-14-16.7-21.9-25.9-47.3-21.8v32.6c3.9-1.2,15.9-2.5,37.4,15.1c30.2,24.6,57.6,36.1,83.4,35.2h1v4.7
			h22.3V312.6z M246.5,290.6v-86.5c-11.7-4.4-23.6-1-26.4,0v86.5C232.6,294.7,243.7,291.5,246.5,290.6z M246.5,115.8V77h-26v38.8
			C233.2,120.1,243.9,116.8,246.5,115.8z M246.1,167.3c0-5.8-1.1-8.6-2.1-11.3c-0.9-2.4-1.7-4.5-1.7-8.3c0-5.7,1.7-10,2.7-12.2
			h-90.6c1.1,2.2,2.7,6.5,2.7,12.2c0,3.8-0.8,6-1.7,8.3c-1,2.6-2.1,5.4-2.1,11.3c0,8.7,1.8,12.6,2.3,13.8h0.1h87.7h0.1
			C244.3,179.9,246.1,175.9,246.1,167.3z M245.5,201.7l-1.6-3.6h-88.2l-1.6,3.6c12.4-3.9,24.3-0.1,26.6,0.7
			c1.5-0.6,7.2-2.5,19.2-2.5s17.7,2,19.2,2.5C221.4,201.6,233.3,197.7,245.5,201.7z M244,120.4l1.2-2.1c-2.4,0.8-6.5,1.7-11.6,1.7
			c-4.2,0-9-0.6-14.2-2.5c-1.6,0.5-8.8,2.5-19.2,2.5c-5.8,0-12.6-0.6-19.8-2.5c-5.2,1.9-10,2.5-14.2,2.5c-5.1,0-9.1-0.9-11.6-1.7
			l1.2,2.1c0.6-0.2,1.3-0.3,1.9-0.3h42.6h42C242.9,120.1,243.4,120.2,244,120.4z M245.2,133.6l-1.1-2.2c-0.6,0.2-1.3,0.3-2,0.3
			h-84.5c-0.7,0-1.4-0.1-2.1-0.3l-1.1,2.2H245.2z M246.1,125.9c0-2.2-1.8-3.9-3.9-3.9h-84.5c-2.1,0-3.9,1.8-3.9,3.9
			c0,2.2,1.8,3.9,3.9,3.9h84.5C244.3,129.8,246.1,128,246.1,125.9z M241.8,296.6l2.6-3.3c-2.5,0.7-6.6,1.5-11.4,1.5
			c-2.2,0-4.5-0.1-6.9-0.5c-2.4-0.4-4.9-1-7.5-1.9c-1.2,0.4-3.7,1.2-8,1.8v2.4H240C240.6,296.4,241.2,296.4,241.8,296.6z
			 M245.7,192.7c0-1-0.9-2.6-1.6-3.7c-0.1,0-0.3,0-0.4,0H156c-0.1,0-0.2,0-0.4,0c-0.7,1.1-1.6,2.7-1.6,3.7c0,1,0.9,2.5,1.6,3.5h88.5
			C244.8,195.2,245.7,193.6,245.7,192.7z M245.7,185c0-1.1-0.9-2-2-2H156c-1.1,0-2,0.9-2,2s0.9,2,2,2h87.7
			C244.8,187,245.7,186.1,245.7,185z M240,308.2c2.7,0,5-2.2,5-5s-2.2-5-5-4.9h-28.3c1.7,2.2,2.6,5.1,2.6,8.1v1.8H240z M218.4,115.8
			V77h-37.2v38.8C199.8,120.3,215.1,116.7,218.4,115.8z M217.9,290.3V204c-1.6-0.7-7.1-2.3-18.1-2.3c-11.1,0-16.6,1.8-18.1,2.3v86.3
			c1,0.4,3.3,1.1,7.4,1.7v-63.5h21.4V292C214.6,291.4,217,290.7,217.9,290.3z M212.6,310.2v-2v-1.8c0-2.3-0.7-4.3-1.8-6.1
			c-0.3-0.5-0.6-1-1-1.4c-0.2-0.3-0.4-0.5-0.6-0.7c-0.1-0.1-0.3-0.3-0.4-0.4c-0.6-0.6-1.3-1.1-2.1-1.6c-1.8-1.1-3.8-1.7-6.1-1.7H200
			h-0.7c-2.2,0-4.3,0.6-6.1,1.7c-0.8,0.5-1.5,1-2.1,1.6c-0.1,0.1-0.3,0.3-0.4,0.4c-0.2,0.3-0.4,0.5-0.6,0.7c-0.4,0.4-0.7,0.9-1,1.4
			c-1.2,1.8-1.8,3.8-1.8,6.1v1.8v2v12.6h24.9v-12.6H212.6z M208.7,295.3v-1.1v-2v-61.8h-17.6v61.8v2v1.1c0.5-0.4,1.1-0.7,1.6-1
			c2-1.1,4.2-1.7,6.6-1.7h0.7h0.7c2.3,0,4.6,0.6,6.6,1.7C207.8,294.6,208.2,294.9,208.7,295.3z M189,296.3v-2.4
			c-2.2-0.2-3.9-0.6-5.2-0.9c-1.3-0.3-2.3-0.6-2.8-0.9c-5.2,1.9-10.1,2.4-14.4,2.4c-4.8,0-8.8-0.8-11.4-1.5l2.6,3.3
			c0.6-0.1,1.2-0.2,1.8-0.2H189z M188.1,298.2h-28.3c-2.7,0-5,2.2-5,5s2.2,5,5,5v-0.1h25.7v-1.8
			C185.5,303.3,186.5,300.5,188.1,298.2z M179.7,290.6v-86.5c-2.7-0.9-14.7-4.3-26.4,0v86.5C156,291.5,167.3,294.7,179.7,290.6z
			 M179.3,115.8V77h-26v38.8C155.9,116.8,166.6,120.1,179.3,115.8z M151.5,268v-32.7c-25.5-4.1-33.3,5.1-47.3,21.8
			c-1.8,2.2-3.6,4.3-5.7,6.7c-16.6,19.1-31.2,32.4-48.4,35.5c-10.4,1.8-16.4,1.4-22.3,0.9c-3-0.2-5.9-0.4-9.2-0.3
			c-12,1.9-11.3,12.3-11.3,12.8v10.3h22.3v-4.7h1c25.9,0.9,53.2-10.6,83.4-35.2C135.5,265.5,147.5,266.7,151.5,268z"/>
		<path class="st0" d="M246.5,204.1v86.5c-2.7,0.9-13.9,4.1-26.4,0v-86.5C222.8,203.1,234.8,199.7,246.5,204.1z"/>
		<path class="st0" d="M243.9,198l1.6,3.6c-12.2-3.9-24.1-0.1-26.4,0.7c-1.5-0.6-7.2-2.5-19.2-2.5s-17.7,2-19.2,2.5
			c-2.3-0.8-14.2-4.6-26.6-0.7l1.6-3.6H243.9z"/>
		<path class="st0" d="M245.2,118.3l-1.2,2.1c-0.6-0.2-1.2-0.3-1.9-0.3h-42V120c10.4,0,17.6-2,19.2-2.5c5.2,1.9,10,2.5,14.2,2.5
			C238.7,120,242.8,119.1,245.2,118.3z"/>
		<path class="st0" d="M244.1,131.5l1.1,2.2h-90.7l1.1-2.2c0.7,0.2,1.4,0.3,2.1,0.3h84.5C242.9,131.8,243.5,131.7,244.1,131.5z"/>
		<path class="st0" d="M244.4,293.2l-2.6,3.3c-0.6-0.2-1.2-0.2-1.8-0.2h-29.4V294c4.3-0.6,6.9-1.4,8-1.8c2.6,0.9,5.1,1.5,7.5,1.9
			c2.4,0.4,4.7,0.5,6.9,0.5C237.8,294.7,241.9,293.9,244.4,293.2z"/>
		<path class="st0" d="M243.7,183c1.1,0,2,0.9,2,2s-0.9,2-2,2H156c-1.1,0-2-0.9-2-2s0.9-2,2-2H243.7z"/>
		<path class="st0" d="M217.9,204v86.3c-1,0.4-3.3,1.1-7.5,1.7v-63.5h-21.4V292c-4.1-0.6-6.5-1.3-7.4-1.7V204
			c1.6-0.6,7.1-2.3,18.1-2.3C210.9,201.7,216.4,203.3,217.9,204z"/>
		<path class="st0" d="M200.2,120L200.2,120l-42.6,0.1c-0.6,0-1.3,0.1-1.9,0.3l-1.2-2.1c2.4,0.8,6.5,1.7,11.6,1.7
			c4.2,0,9-0.6,14.2-2.5C187.6,119.4,194.4,120,200.2,120z"/>
		<path class="st0" d="M189,293.9v2.4h-29.4c-0.6,0-1.2,0.1-1.8,0.2l-2.6-3.3c2.5,0.7,6.6,1.5,11.4,1.5c4.3,0,9.2-0.6,14.4-2.4
			c0.6,0.2,1.5,0.6,2.8,0.9C185.2,293.4,186.9,293.7,189,293.9z"/>
		<path class="st0" d="M179.7,204.1v86.5c-12.5,4.1-23.7,0.9-26.4,0v-86.5C165,199.8,177,203.2,179.7,204.1z"/>
	</g>
</g>
</svg>
