<?xml version="1.0" encoding="utf-8"?>
<!-- Generator: Adobe Illustrator 22.1.0, SVG Export Plug-In . SVG Version: 6.00 Build 0)  -->
<svg version="1.1" id="Layer_1" xmlns="http://www.w3.org/2000/svg" xmlns:xlink="http://www.w3.org/1999/xlink" x="0px" y="0px"
	 viewBox="0 0 400 400" style="enable-background:new 0 0 400 400;" xml:space="preserve">
<style type="text/css">
	.st0{fill:#F5F5F5;}
</style>
<g>
	<g id="XMLID_1_">
		<path d="M375.6,307c7.6,7.7,6.6,16.9,6.6,17.2l-0.1,0.8h-55.4l-0.1-0.8c-0.4-5.9-2.7-9.4-7.3-11.2c-2.7-1-6.5-0.7-10.1-0.3
			c-2.6,0.3-5,0.4-6.9,0.2c-18.4-2.6-29.1-11-31.8-13.5l-2.5,2.7l-0.6-0.8c-6.5-7.7-17.2-8.5-19.4-8.6l-4.3,5.2
			c2,1.1,3.3,3.4,3.3,5.8c0,3.8-3.1,6.9-6.9,6.9h-17.7v14h-45v-14h-17.7c-3.8,0-6.9-3.1-6.9-6.9c0-2.5,1.2-4.7,3.3-5.8l-4.3-5.2
			c-2.3,0-12.9,0.8-19.4,8.6l-0.6,0.8l-2.5-2.7c-2.7,2.5-13.3,10.8-31.8,13.5c-1.9,0.3-4.3,0-6.9-0.2c-3.5-0.4-7.3-0.6-10.1,0.3
			c-4.6,1.8-6.9,5.1-7.4,11.2l-0.1,0.8H17.8l-0.1-0.8c0-0.4-1-9.6,6.6-17.4c3.3-3.4,5.6-4.3,7.4-5.1c2.2-0.8,3.5-1.4,5.6-6.5
			c1.7-4,3.9-6.4,6.6-7.2c3.1-0.9,6.9,0.3,11.6,3.5c5.5,4,18.5,0.4,22.4-1.2l0.2-0.1c11.2-4.8,19.8-14.1,25.2-27
			c7.9-19.2,30.5-32.1,48.1-34.6v-25.5l2.7-5.9c-0.6-0.8-2-2.8-2-4.6c0-1.5,1-3.3,1.7-4.4c-1-0.7-1.7-1.9-1.7-3.2s0.7-2.7,2-3.3
			c-0.9-1.8-2.5-6.1-2.5-14.4c0-6.2,1.2-9.3,2.2-12.1c0.8-2.3,1.6-4.3,1.6-7.7c0-7.5-3.2-12.5-3.2-12.6l-0.3-0.4l2.1-4.2
			c-1.4-1-2.2-2.7-2.2-4.5c0-1.9,0.9-3.4,2.3-4.6l-2.7-4.6V75h97.4v41.9l-2.8,4.6c1.4,1,2.3,2.7,2.3,4.6c0,1.9-0.8,3.4-2.2,4.5
			l2.1,4.2l-0.3,0.4c0,0-3.2,5-3.2,12.6c0,3.4,0.7,5.4,1.6,7.7c1.1,2.7,2.2,5.8,2.2,12.1c0,8.3-1.7,12.7-2.5,14.4
			c1.2,0.6,2,1.9,2,3.3c0,1.3-0.6,2.5-1.7,3.2c0.6,1,1.7,2.9,1.7,4.4c0,1.7-1.2,3.7-2,4.6l2.7,5.9v25.5
			c17.6,2.6,40.2,15.3,48.1,34.5c5.3,12.9,14.1,22.2,25.2,27l0.2,0.1c3.9,1.7,16.9,5.2,22.4,1.2c4.7-3.3,8.4-4.5,11.6-3.5
			c2.7,0.8,5,3.2,6.6,7.2c2.1,5.1,3.4,5.5,5.6,6.5C370.1,302.6,372.4,303.5,375.6,307z M380.3,323.2c0.1-2.3-0.3-9.2-5.9-15.1
			c-3-3.1-5.1-3.9-6.8-4.6c-2.6-1-4.3-2-6.6-7.4c-1.4-3.4-3.2-5.4-5.4-6c-2.6-0.7-5.8,0.4-10,3.3c-6.7,4.8-21,0.3-24.3-1l-0.2-0.1
			c-11.6-5-20.6-14.6-26.1-28c-8.4-20.6-32.5-31.2-46.4-33.3v60c3,0.2,12.8,1.1,19.6,8.5l2.3-2.6l0.6,0.7
			c0.1,0.2,10.7,10.7,31.4,13.6c1.8,0.3,4.1,0,6.6-0.2c3.9-0.4,7.8-0.7,10.9,0.4c5,2,7.7,5.7,8.4,11.9L380.3,323.2L380.3,323.2z
			 M246.7,290.9v-86.7c-6.7-2.5-13.5-2.4-18.6-1.8c-0.2,0-0.4,0.1-0.6,0.1c-2.8,0.4-5,0.9-6.4,1.4c-0.4,0.1-0.8,0.2-1.1,0.3v86.7
			c8.7,2.9,16.8,2.3,21.8,1.3c0.6-0.1,1.1-0.2,1.6-0.4C244.9,291.5,246,291.2,246.7,290.9z M246.7,115.9V76.9h-26.1v39.1
			C233.4,120.3,244.2,116.9,246.7,115.9z M246.6,167.4c0-5.8-1.1-8.8-2.1-11.4c-0.9-2.4-1.8-4.6-1.8-8.3c0-5.8,1.8-10.1,2.7-12.2
			h-90.9c1,2.1,2.7,6.5,2.7,12.2c0,3.8-0.8,6-1.8,8.3c-1.1,2.8-2.1,5.5-2.1,11.4c0,8.9,1.8,12.8,2.7,13.9h0.1h87.9h0.1
			C244.7,180.2,246.6,176.2,246.6,167.4z M245.7,185.1C245.7,185.1,245.7,185.1,245.7,185.1c0-0.1,0-0.3,0-0.4
			c0-0.1-0.1-0.2-0.1-0.4c0-0.1-0.1-0.2-0.2-0.3c0-0.1-0.1-0.2-0.2-0.3c0,0-0.1-0.1-0.1-0.1c-0.1-0.1-0.2-0.2-0.3-0.2
			c-0.1-0.1-0.2-0.1-0.3-0.2c-0.1-0.1-0.2-0.1-0.4-0.1c-0.1,0-0.2,0-0.4,0h-87.8c-0.1,0-0.2,0-0.2,0c-1,0.1-1.8,0.9-1.8,2
			c0,1,0.8,2,2,2h0.1h87.8c0,0,0,0,0,0c0.1,0,0.2,0,0.4,0c0.1,0,0.3-0.1,0.4-0.1c0.1,0,0.2-0.1,0.3-0.2c0.1-0.1,0.2-0.1,0.3-0.2
			c0.1-0.1,0.2-0.2,0.3-0.4C245.6,185.9,245.7,185.5,245.7,185.1z M245.7,202l-1.7-3.8H244h-44.2h-0.1h-44.1h-0.1l-1.7,3.8
			c0.1,0,0.1,0,0.2-0.1l-0.1,0.2c12.4-4.1,24.4-0.2,26.7,0.6c1.3-0.6,7.1-2.6,19.2-2.6V200c1.9,0,3.6,0.1,5.1,0.1
			c8.5,0.5,12.7,1.9,14,2.5c0,0,0,0,0.1,0c0,0,0,0,0.1,0c1.3-0.5,6-2,12.1-2.4c1.5-0.1,3.1-0.1,4.7,0
			C238.9,200.4,242.3,200.9,245.7,202l-0.1,0C245.6,201.9,245.7,202,245.7,202z M244.4,120.4l1.2-2.2c0,0-0.1,0-0.1,0l0,0
			c-1.9,0.5-4.6,1.2-8.1,1.5c-0.3,0-0.6,0.1-0.9,0.1c-0.9,0.1-1.8,0.1-2.8,0.1c-0.5,0-1,0-1.5,0c-0.3,0-0.6,0-0.8,0
			c-3.6-0.2-7.6-0.9-11.9-2.4c0,0,0,0-0.1,0c0,0,0,0-0.1,0c-1.2,0.3-6.8,1.8-14.7,2.3c-1.5,0.1-3,0.1-4.7,0.1c-1.4,0-2.9,0-4.5-0.1
			c-4.7-0.2-9.8-0.9-15.2-2.3c0,0,0,0-0.1,0c0,0,0,0-0.1,0c-4.2,1.5-8.2,2.2-11.8,2.4c-0.3,0-0.6,0-0.8,0c-0.5,0-1.1,0-1.6,0
			c-0.9,0-1.8,0-2.7-0.1c-0.3,0-0.6,0-0.9-0.1c-3.5-0.3-6.2-1-8.1-1.5l0,0c-0.1,0-0.1,0-0.1,0l1.6,2.2c0,0,0.1,0,0.1,0l0,0
			c0.6-0.2,1.2-0.3,1.8-0.3h84.7c0.1,0,0.2,0,0.3,0c0.5,0,1.1,0.1,1.6,0.3H244.4C244.3,120.4,244.4,120.4,244.4,120.4z M245.4,133.6
			l-1.1-2.3c-0.1,0-0.1,0.1-0.2,0.1c-0.1,0-0.2,0.1-0.3,0.1c-0.4,0.1-0.9,0.2-1.5,0.2h-84.8c-0.7,0-1.4-0.2-2-0.4l-0.1,0.1
			c0,0,0,0,0,0l-1.1,2.3h91l-0.1-0.1H245.4z M245.8,192.8c0-1-0.9-2.8-1.6-3.8c-0.2,0-0.3,0-0.4,0h-87.9c-0.2,0-0.3,0-0.5,0
			c-0.5,0.9-1.6,2.7-1.6,3.8c0,1.2,1,2.7,1.6,3.5h88.8C244.8,195.5,245.8,193.9,245.8,192.8z M246.1,125.9c0-2.2-1.8-4-4-4h-84.7
			c-2.2,0-4,1.8-4,4s1.8,4.1,4,4h84.7C244.4,129.9,246.1,128.1,246.1,125.9z M242.1,297l2.9-3.5c-0.2,0-0.3,0.1-0.5,0.1l0.2-0.2
			c-2.6,0.6-6.6,1.5-11.6,1.5c-3.7,0-8-0.4-12.5-1.8c-0.2-0.1-0.5-0.1-0.7-0.2c-0.3-0.1-0.6-0.2-0.9-0.3h0c-0.1,0-0.2-0.1-0.3-0.1
			h-0.1c-1.1,0.5-3.8,1.4-8.1,1.9v2.5h0.3v0.1h0.7v-0.1c0.1-0.1,0.3-0.2,0.4-0.3c0.9-0.7,1.9-1.5,3.5-1.5c0.9,0,1.8,0.2,2.6,0.5
			c0.1,0.1,0.3,0.1,0.4,0.2c0.6,0.3,1.1,0.6,1.6,1.1h0.2c0.1,0,0.1,0.1,0.1,0.1h19.8C240.7,296.8,241.4,296.9,242.1,297z
			 M245.2,303.5c0-2.7-2.3-5.1-5.1-5.1h-18.3v0.1c0.4,0.8,0.6,1.8,0.6,2.8v7.3h17.7C242.8,308.6,245.2,306.4,245.2,303.5z
			 M220.7,310.6v-1.9v-7.3c0-1.2-0.4-2.2-0.9-2.8c-1-1.2-2.8-1.8-4.1-1.8c-1,0-1.8,0.4-2.6,1.1c-0.3,0.3-0.5,0.4-0.9,0.6
			c-0.4,0.3-0.9,0.4-1.5,0.6c-0.3,0.1-0.5,0.2-0.9,0.2c-0.2,0-0.4,0-0.6,0c-0.1,0-0.2,0-0.3,0c-1.1-0.1-2-0.4-2.7-0.9
			c-0.6-0.4-1.1-1-1.6-1.9c-0.3-0.5-0.4-1.2-0.5-1.9c-0.1-0.3-0.1-0.5-0.1-0.9c0-0.4-0.1-0.6-0.1-0.9c-0.4-3.2-3.6-3.5-4-3.5
			c-0.3,0-3.4,0.2-3.9,3.5c-0.1,0.3-0.1,0.6-0.1,0.9c0,0.3-0.1,0.6-0.1,0.9c-0.1,0.7-0.3,1.4-0.5,1.9c-0.3,0.8-0.9,1.3-1.6,1.9
			c-0.8,0.6-1.9,0.9-2.7,0.9c-0.1,0-0.2,0-0.3,0c-0.3,0-0.4,0-0.6,0c-0.4,0-0.6-0.1-0.9-0.2c-0.5-0.2-1-0.4-1.5-0.6
			c-0.4-0.2-0.6-0.4-0.9-0.6c-0.8-0.6-1.6-1.1-2.6-1.1c-1.1,0-2.9,0.4-4.1,1.8c-0.5,0.7-0.8,1.6-0.8,2.8v7.3v1.9v12.1h41.4
			L220.7,310.6L220.7,310.6z M218.5,115.8v-39h-37.4v39C199.8,120.4,215.3,116.8,218.5,115.8z M218.1,290.8v-86.5
			c-1.6-0.6-7.1-2.4-18.2-2.4c-11.2,0-16.8,1.7-18.3,2.3h0.1v86.6c0.9,0.4,3.3,1.2,7.5,1.8V229h21.5v63.6
			C214.8,292,217.2,291.2,218.1,290.8z M208.8,297.7v-0.9v-2.2v-1.9v-62.1H191v62.1v1.9h-0.3v2.2v0.9c0.6-0.1,1.5-0.3,2.1-0.9
			c0.4-0.4,0.8-1.1,0.9-2c0.1-0.3,0.1-0.5,0.1-0.8c0-0.4,0.1-0.7,0.1-1c0.5-4,3.8-5.2,5.7-5.2c2,0,5.3,1.2,5.8,5.2
			c0.1,0.4,0.1,0.6,0.1,1c0,0.3,0.1,0.5,0.1,0.8c0.2,0.9,0.4,1.6,0.9,2C207.3,297.4,208.1,297.7,208.8,297.7z M189.4,296.8v-2.5
			c-4.4-0.5-7-1.3-8.1-1.9h-0.1c-2.6,0.9-5.2,1.6-7.7,2c-2.4,0.4-4.8,0.5-6.9,0.5c-1.5,0-3-0.1-4.3-0.2c-3-0.3-5.4-0.8-7.2-1.2
			l0.1,0.2c-0.1,0-0.2,0-0.3-0.1l2.9,3.6c0.7-0.2,1.2-0.3,1.9-0.3h19.8c0,0,0.1-0.1,0.1-0.1h0.1c0.7-0.6,1.4-1,2.3-1.3
			c0.1,0,0.3-0.1,0.4-0.1c0.6-0.2,1.3-0.2,2-0.2c1.6,0,2.6,0.8,3.5,1.5c0.1,0.1,0.3,0.2,0.4,0.3h0.9v-0.1H189.4z M179.8,290.9v-86.7
			c-2.8-0.9-14.9-4.4-26.7,0v86.7C155.8,291.9,167.2,295.2,179.8,290.9z M179.3,115.9V76.9h-26.1v39.1
			C155.6,116.9,166.4,120.3,179.3,115.9z M177.9,298.6h-18.2v-0.1c-2.7,0-5.1,2.3-5.1,5.1c0,2.7,2.3,5.1,5.1,5.1h17.6v-7.3
			C177.3,300.3,177.6,299.5,177.9,298.6z M151.4,291v-60c-13.9,2.1-37.8,12.7-46.4,33.3c-5.5,13.4-14.6,23-26.1,28l-0.2,0.1
			c-3.2,1.4-17.5,5.8-24.3,1.1c-4.2-2.9-7.4-4.1-10-3.3c-2.2,0.6-4.1,2.6-5.4,6c-2.3,5.5-4,6.5-6.7,7.4c-1.7,0.6-3.8,1.5-6.8,4.6
			c-5.8,5.7-6.1,12.7-6,15h52.1c0.7-6.1,3.4-9.9,8.4-11.9c3-1.2,7-0.9,10.8-0.5c2.5,0.3,4.8,0.4,6.6,0.2c20.6-3,31.3-13.6,31.5-13.6
			l0.6-0.7l2.3,2.6C138.4,292.1,148.3,291,151.4,291z"/>
		<path class="st0" d="M246.7,204.3v86.7c-0.6,0.2-1.8,0.6-3.2,0.9c-0.5,0.1-1,0.2-1.6,0.4c-5.1,1-13.1,1.6-21.8-1.3v-86.7
			c0.3-0.1,0.6-0.2,1.1-0.3c1.4-0.4,3.7-1,6.4-1.4c0.2,0,0.4-0.1,0.6-0.1C233.2,201.8,240,201.8,246.7,204.3z"/>
		<path class="st0" d="M245.7,184.7c0,0.1,0,0.2,0,0.4c0,0,0,0,0,0c0,0.4-0.1,0.7-0.3,1c-0.1,0.1-0.2,0.3-0.3,0.4
			c-0.1,0.1-0.2,0.2-0.3,0.2c-0.1,0.1-0.2,0.1-0.3,0.2c-0.1,0.1-0.2,0.1-0.4,0.1c-0.1,0-0.2,0-0.4,0c0,0,0,0,0,0h-87.8
			c-1,0-2-0.8-2-2c0-1,0.7-1.8,1.7-2c0.1,0,0.2,0,0.2,0h87.8c0.1,0,0.3,0,0.4,0c0.1,0,0.2,0.1,0.4,0.1c0.1,0.1,0.2,0.1,0.3,0.2
			c0.1,0.1,0.2,0.2,0.3,0.2c0,0,0.1,0.1,0.1,0.1c0.1,0.1,0.1,0.2,0.2,0.3c0.1,0.1,0.1,0.2,0.2,0.3
			C245.6,184.5,245.7,184.6,245.7,184.7z"/>
		<path d="M244.1,198.2l1.7,3.8c0,0-0.1,0-0.1,0L244.1,198.2L244.1,198.2z"/>
		<path d="M245.6,118.2l-1.2,2.2c0,0-0.1,0-0.1,0l1.2-2.1C245.6,118.2,245.6,118.2,245.6,118.2z"/>
		<path class="st0" d="M244,198.2l1.6,3.7c-3.4-1.1-6.7-1.6-9.8-1.7c-1.6-0.1-3.2-0.1-4.7,0c-6.1,0.4-10.8,1.9-12.2,2.4
			c-1.3-0.5-5.5-2-14-2.4c-1.6-0.1-3.2-0.1-5.1-0.1v-1.8H244z"/>
		<path d="M245.4,186.1c0.2-0.3,0.3-0.7,0.3-1C245.7,185.5,245.6,185.9,245.4,186.1z"/>
		<path class="st0" d="M245.5,118.3l-1.2,2.1c-0.5-0.2-1-0.3-1.6-0.3c-0.1,0-0.2,0-0.3,0h-84.7c-0.7,0-1.3,0.1-1.8,0.3l-1.5-2.1
			c1.9,0.5,4.7,1.2,8.1,1.5c0.3,0,0.6,0.1,0.9,0.1c0.9,0.1,1.8,0.1,2.7,0.1c0.5,0,1.1,0,1.6,0c0.3,0,0.5,0,0.8,0
			c3.6-0.2,7.6-0.9,11.9-2.4c5.4,1.4,10.5,2,15.2,2.3c1.5,0.1,3,0.1,4.5,0.1c1.6,0,3.2-0.1,4.7-0.1c7.9-0.4,13.4-1.9,14.8-2.2
			c4.3,1.5,8.3,2.2,11.9,2.4c0.3,0,0.6,0,0.8,0c0.5,0,1,0,1.5,0c1,0,1.9,0,2.8-0.1c0.3,0,0.6,0,0.9-0.1
			C240.8,119.5,243.6,118.8,245.5,118.3z"/>
		<path d="M245.3,133.6l0.1,0.1h-91l1.1-2.3c0,0,0,0,0,0l-1.1,2.2H245.3z"/>
		<path class="st0" d="M245.3,133.6h-90.9l1.1-2.2c0.6,0.2,1.2,0.4,1.9,0.4h84.7c0.6,0,1.1-0.1,1.7-0.3c0.1,0,0.2-0.1,0.3-0.1
			L245.3,133.6z"/>
		<path d="M245.2,183.8c0,0-0.1-0.1-0.1-0.1C245.2,183.7,245.2,183.8,245.2,183.8z"/>
		<path d="M245.1,183.7c-0.1-0.1-0.2-0.2-0.3-0.2C244.9,183.5,245,183.6,245.1,183.7z"/>
		<path d="M244.8,183.4c-0.1-0.1-0.2-0.1-0.3-0.2C244.6,183.3,244.7,183.4,244.8,183.4z"/>
		<path d="M244.7,293.3l-0.2,0.2c-2.6,0.6-6.4,1.3-11.1,1.3c-3.8,0-8.2-0.4-12.8-1.9c4.4,1.4,8.7,1.8,12.5,1.8
			C238.1,294.8,242.1,294,244.7,293.3z"/>
		<path class="st0" d="M244.5,293.6l-2.7,3.3c-0.6-0.1-1.2-0.2-1.9-0.2h-19.6c-0.5-0.4-1.1-0.8-1.8-1.1c-0.1-0.1-0.3-0.1-0.4-0.2
			c-0.9-0.4-1.9-0.6-2.9-0.6c-1.4,0.1-2.4,0.8-3.3,1.6c-0.1,0.1-0.3,0.2-0.4,0.3h-0.6v-2.4c4.4-0.6,7-1.5,8.1-1.9h0.1
			c0.3,0.1,0.6,0.2,0.9,0.3c0.2,0.1,0.5,0.1,0.7,0.2c4.6,1.4,9,1.9,12.8,1.9C238.1,294.9,241.9,294.2,244.5,293.6z"/>
		<path d="M244.5,183.3c-0.1-0.1-0.2-0.1-0.4-0.1C244.3,183.2,244.4,183.2,244.5,183.3z"/>
		<path d="M244.1,183.2c-0.1,0-0.2,0-0.4,0C243.9,183.1,244,183.1,244.1,183.2z"/>
		<path d="M243.8,131.6c0.1,0,0.2-0.1,0.3-0.1C244,131.5,243.9,131.6,243.8,131.6z"/>
		<path d="M231.4,119.8c0.3,0,0.6,0,0.8,0C232,119.9,231.7,119.8,231.4,119.8z"/>
		<path d="M227.5,202.6c0.2,0,0.4-0.1,0.6-0.1C227.9,202.5,227.7,202.5,227.5,202.6z"/>
		<path d="M219.6,117.4c4.2,1.5,8.2,2.2,11.9,2.4C227.9,119.6,223.9,118.9,219.6,117.4C219.6,117.4,219.6,117.4,219.6,117.4z"/>
		<path d="M227.5,202.6c-2.8,0.4-5,0.9-6.4,1.4C222.5,203.5,224.7,202.9,227.5,202.6z"/>
		<path d="M220.3,296.7h-0.2c-0.5-0.4-1-0.8-1.6-1.1C219.2,295.9,219.8,296.2,220.3,296.7z"/>
		<path d="M231.1,200.2c-6.1,0.4-10.8,1.9-12.1,2.4c0,0,0,0-0.1,0C220.3,202.1,225,200.6,231.1,200.2z"/>
		<path d="M219,292.5L219,292.5c-1.2,0.4-3.8,1.2-8.2,1.9v2.4h-0.3v-2.5c4.4-0.5,7-1.3,8.1-1.9h0.1
			C218.8,292.4,218.9,292.5,219,292.5z"/>
		<path class="st0" d="M218.1,204.4v86.5c-0.9,0.4-3.3,1.2-7.5,1.8V229h-21.5v63.6c-4.2-0.5-6.6-1.4-7.5-1.8v-86.6h-0.1
			c1.6-0.6,7.1-2.3,18.3-2.3C211,202,216.6,203.8,218.1,204.4z"/>
		<path d="M199.8,200v0.1c-12.1,0-17.8,2-19.2,2.6c-2.3-0.8-14.3-4.7-26.7-0.6l0.1-0.2c12.4-4,24.2-0.2,26.5,0.7
			C181.9,202.1,187.6,200,199.8,200C199.7,200,199.8,200,199.8,200z"/>
		<path class="st0" d="M199.8,198.2v1.8c0,0-0.1,0-0.1,0c-12.1,0-17.8,2.1-19.2,2.6c-2.3-0.8-14.1-4.7-26.5-0.7l1.6-3.7H199.8
			L199.8,198.2z"/>
		<path d="M180.4,117.4c5.4,1.4,10.5,2,15.2,2.3C190.9,119.5,185.8,118.8,180.4,117.4C180.4,117.4,180.4,117.4,180.4,117.4z"/>
		<path d="M189.2,296.8v0.1h-0.9c-0.1-0.1-0.3-0.2-0.4-0.3c-0.9-0.6-2-1.5-3.5-1.5c-0.7,0-1.3,0.1-2,0.2c0.7-0.2,1.4-0.3,2.2-0.3
			c1.6,0,2.7,0.8,3.5,1.5c0.1,0.1,0.3,0.2,0.4,0.3H189.2z"/>
		<path class="st0" d="M189.2,294.4v2.4h-0.7c-0.1-0.1-0.3-0.2-0.4-0.3c-0.8-0.6-2-1.5-3.5-1.5c-0.7,0-1.5,0.1-2.2,0.3
			c-0.1,0-0.3,0.1-0.4,0.1c-0.9,0.3-1.7,0.7-2.4,1.3h-19.7c-0.7,0-1.2,0.1-1.9,0.3l-2.8-3.5c1.8,0.4,4.2,0.8,7.1,1.1
			c1.3,0.1,2.8,0.2,4.3,0.2c2.1,0,4.5-0.2,6.9-0.5c2.4-0.4,4.9-1,7.5-1.9h0.1C182.2,292.9,184.8,293.8,189.2,294.4z"/>
		<path class="st0" d="M179.8,204.3v86.7c-12.6,4.3-23.9,0.9-26.7,0v-86.7C164.9,199.9,177,203.3,179.8,204.3z"/>
		<path d="M179.5,296.8c0,0-0.1,0.1-0.1,0.1h-19.8c-0.6,0-1.1,0.1-1.9,0.3l-2.9-3.6c0.1,0,0.2,0,0.3,0.1l2.8,3.5
			c0.6-0.2,1.1-0.3,1.9-0.3H179.5z"/>
		<path d="M162.5,119.7c0.3,0,0.6,0.1,0.9,0.1C163,119.8,162.8,119.8,162.5,119.7z"/>
		<path d="M154.4,118.2c1.9,0.5,4.6,1.2,8.1,1.5C159.1,119.5,156.3,118.8,154.4,118.2L154.4,118.2z"/>
		<path d="M157.7,120.1c-0.6,0-1.2,0.1-1.8,0.3l0,0C156.4,120.2,157,120.1,157.7,120.1z"/>
		<path d="M155.9,187.1h-0.1c-1.1,0-2-0.9-2-2c0-1.1,0.8-1.9,1.8-2c-1,0.1-1.7,1-1.7,2C154,186.2,154.9,187.1,155.9,187.1z"/>
	</g>
</g>
</svg>
