<?xml version="1.0" encoding="utf-8"?>
<!-- Generator: Adobe Illustrator 22.1.0, SVG Export Plug-In . SVG Version: 6.00 Build 0)  -->
<svg version="1.1" id="Layer_1" xmlns="http://www.w3.org/2000/svg" xmlns:xlink="http://www.w3.org/1999/xlink" x="0px" y="0px"
	 viewBox="0 0 400 400" style="enable-background:new 0 0 400 400;" xml:space="preserve">
<style type="text/css">
	.st0{fill:none;stroke:#231F20;stroke-width:2;stroke-miterlimit:10;}
	.st1{fill:#F5F5F5;}
	.st2{fill:#FFFFFF;stroke:#231F20;stroke-width:2;stroke-miterlimit:10;}
</style>
<g>
	<path id="XMLID_1_" class="st0" d="M24,374.8V200.2c0-96.3,78.7-175,175-175l0,0c96.3,0,175,78.7,175,175v174.6"/>
	<path id="XMLID_4_" class="st0" d="M84.9,374.8V201.2c0-62.7,51.4-114.1,114.1-114.1l0,0c62.7,0,114.1,51.4,114.1,114.1v173.6"/>
	<path class="st1" d="M313.1,201.2v173.6h29.8V200.4c0-79.1-64.8-143.8-143.8-143.8s-143.8,64.8-143.8,144v174.3h29.8V201.2
		c0-62.7,51.4-114.1,114.1-114.1S313.1,138.6,313.1,201.2z"/>
	<path class="st0" d="M84.9,374.8V201.2c0-62.7,51.4-114.1,114.1-114.1s114.1,51.4,114.1,114.1v173.6"/>
	<path class="st0" d="M342.8,374.8V200.4c0-79.1-64.8-143.8-143.8-143.8s-143.8,64.8-143.8,144v174.3"/>
	<circle id="XMLID_46_" class="st2" cx="70" cy="294.1" r="11.3"/>
	<circle id="XMLID_54_" class="st2" cx="316.4" cy="147.4" r="11.3"/>
	<circle id="XMLID_53_" class="st2" cx="81.6" cy="147.4" r="11.3"/>
	<circle id="XMLID_49_" class="st2" cx="327.3" cy="294.1" r="11.3"/>
	<circle id="XMLID_45_" class="st2" cx="199" cy="71.5" r="11.3"/>
</g>
</svg>
