<?xml version="1.0" encoding="utf-8"?>
<!-- Generator: Adobe Illustrator 22.1.0, SVG Export Plug-In . SVG Version: 6.00 Build 0)  -->
<svg version="1.1" id="Layer_1" xmlns="http://www.w3.org/2000/svg" xmlns:xlink="http://www.w3.org/1999/xlink" x="0px" y="0px"
	 viewBox="0 0 400 400" style="enable-background:new 0 0 400 400;" xml:space="preserve">
<style type="text/css">
	.st0{fill:#F5F5F5;}
	.st1{fill:#231F20;}
	.st2{fill:#FFFFFF;}
	.st3{fill:none;stroke:#231F20;stroke-width:2;stroke-miterlimit:10;}
	.st4{fill:#FFFFFF;stroke:#231F20;stroke-width:2;stroke-miterlimit:10;}
</style>
<g id="XMLID_19_">
	<g id="XMLID_17_">
		<g id="XMLID_15_">
			<ellipse class="st0" cx="200" cy="200" rx="149.2" ry="149.4"/>
			<path class="st1" d="M200,51.6c81.8,0,148.2,66.4,148.2,148.4S281.8,348.4,200,348.4S51.8,282,51.8,200S118.2,51.6,200,51.6
				 M200,49.6c-40.1,0-77.8,15.6-106.2,44.1c-28.4,28.4-44,66.2-44,106.3s15.6,77.9,44,106.3c28.4,28.4,66.1,44.1,106.2,44.1
				s77.8-15.6,106.2-44.1c28.4-28.4,44-66.2,44-106.3s-15.6-77.9-44-106.3C277.8,65.2,240.1,49.6,200,49.6L200,49.6z"/>
		</g>
		<g id="XMLID_14_">
			<ellipse class="st2" cx="200" cy="200" rx="122.7" ry="122.8"/>
			<path class="st1" d="M200,78.2c32.5,0,63.1,12.7,86.1,35.7c23,23,35.6,53.6,35.6,86.1s-12.7,63.1-35.6,86.1
				c-23,23-53.5,35.7-86.1,35.7s-63.1-12.7-86.1-35.7c-23-23-35.6-53.6-35.6-86.1s12.7-63.1,35.6-86.1
				C136.9,90.9,167.5,78.2,200,78.2 M200,76.2c-68.3,0-123.7,55.4-123.7,123.8S131.7,323.8,200,323.8S323.7,268.4,323.7,200
				S268.3,76.2,200,76.2L200,76.2z"/>
		</g>
		<ellipse id="XMLID_16_" class="st3" cx="200" cy="200" rx="174.8" ry="175"/>
	</g>
	<circle id="XMLID_18_" class="st4" cx="252.2" cy="74.4" r="10.7"/>
	<circle id="XMLID_20_" class="st4" cx="325.6" cy="147.8" r="10.7"/>
	<circle id="XMLID_21_" class="st4" cx="325.6" cy="252.2" r="10.7"/>
	<circle id="XMLID_22_" class="st4" cx="252.2" cy="325.6" r="10.7"/>
	<circle id="XMLID_23_" class="st4" cx="147.8" cy="325.6" r="10.7"/>
	<circle id="XMLID_24_" class="st4" cx="74.4" cy="252.2" r="10.7"/>
	<circle id="XMLID_25_" class="st4" cx="74.4" cy="147.8" r="10.7"/>
	<circle id="XMLID_26_" class="st4" cx="147.8" cy="74.4" r="10.7"/>
</g>
</svg>
