<?xml version="1.0" encoding="utf-8"?>
<!-- Generator: Adobe Illustrator 22.1.0, SVG Export Plug-In . SVG Version: 6.00 Build 0)  -->
<svg version="1.1" id="Layer_1" xmlns="http://www.w3.org/2000/svg" xmlns:xlink="http://www.w3.org/1999/xlink" x="0px" y="0px"
	 viewBox="0 0 400 400" style="enable-background:new 0 0 400 400;" xml:space="preserve">
<style type="text/css">
	.st0{fill:#F5F5F5;}
	.st1{fill:none;stroke:#231F20;stroke-width:2;stroke-miterlimit:10;}
	.st2{fill:#FFFFFF;}
	.st3{fill:#FFFFFF;stroke:#231F20;stroke-width:2;stroke-miterlimit:10;}
</style>
<g>
	<path class="st0" d="M318.2,375.1h28c0-177.5-65.6-321.5-146.5-321.5S53.3,197.6,53.3,375.1h28c0-162,53-293.3,118.4-293.3
		S318.2,213.1,318.2,375.1z"/>
	<path id="XMLID_1_" class="st1" d="M24.7,375.1c0-193.4,78.4-350.2,175-350.2s175,156.8,175,350.2"/>
	<path id="XMLID_2_" class="st1" d="M53.3,375.1c0-177.5,65.6-321.5,146.5-321.5s146.5,143.9,146.5,321.5"/>
	<path id="XMLID_29_" class="st1" d="M81.3,375.1c0-162,53-293.3,118.4-293.3s118.4,131.3,118.4,293.3"/>
	<path id="XMLID_6_" class="st2" d="M321.3,375.1c0-6,4.8-10.8,10.8-10.8c6,0,10.8,4.8,10.8,10.8"/>
	<path id="XMLID_3_" class="st1" d="M321.3,375.1c0-6,4.8-10.8,10.8-10.8c6,0,10.8,4.8,10.8,10.8"/>
	<path id="XMLID_5_" class="st2" d="M56.1,375.1c0-6,4.8-10.8,10.8-10.8s10.8,4.8,10.8,10.8"/>
	<path id="XMLID_4_" class="st1" d="M56.1,375.1c0-6,4.8-10.8,10.8-10.8s10.8,4.8,10.8,10.8"/>
	<circle id="XMLID_40_" class="st3" cx="261.8" cy="104.2" r="10.8"/>
	<circle id="XMLID_39_" class="st3" cx="137" cy="104.2" r="10.8"/>
	<circle id="XMLID_36_" class="st3" cx="81.9" cy="234" r="10.8"/>
	<circle id="XMLID_35_" class="st3" cx="317" cy="233.8" r="10.8"/>
</g>
</svg>
