<?xml version="1.0" encoding="utf-8"?>
<!-- Generator: Adobe Illustrator 22.1.0, SVG Export Plug-In . SVG Version: 6.00 Build 0)  -->
<svg version="1.1" id="Layer_1" xmlns="http://www.w3.org/2000/svg" xmlns:xlink="http://www.w3.org/1999/xlink" x="0px" y="0px"
	 viewBox="0 0 400 400" style="enable-background:new 0 0 400 400;" xml:space="preserve">
<style type="text/css">
	.st0{fill:none;stroke:#000000;stroke-width:2;stroke-linecap:round;stroke-linejoin:round;stroke-miterlimit:10;}
	.st1{fill:#F5F5F5;stroke:#000000;stroke-width:2;stroke-linecap:round;stroke-linejoin:round;stroke-miterlimit:10;}
</style>
<g>
	<polygon class="st0" points="200,325 95.5,264.7 137.1,186.6 200,215.8 	"/>
	<polygon class="st0" points="200,325 95.5,264.7 137.1,186.6 200,215.8 	"/>
	<polygon class="st0" points="200,325 304.5,264.7 262.9,186.6 200,215.8 	"/>
	<polygon class="st1" points="200,215.8 200,201.5 121.5,165.8 137.1,186.6 	"/>
	<polygon class="st1" points="200,215.8 200,201.5 278.5,165.8 262.9,186.6 	"/>
	<path class="st0" d="M200,201.5"/>
	<path class="st0" d="M200,201.5"/>
	<polygon class="st0" points="200,170.6 138.6,144.9 121.5,165.8 200,201.5 	"/>
	<polygon class="st0" points="200,170.6 261.4,144.9 278.5,165.8 200,201.5 	"/>
	<polygon class="st1" points="200,170.6 200,131.5 309,94.3 261.4,144.9 	"/>
	<polygon class="st1" points="200,170.6 200,131.5 91,94.3 138.6,144.9 	"/>
	<polygon class="st0" points="309,94.3 200,75 91,94.3 200,131.5 	"/>
</g>
</svg>
