<?xml version="1.0" encoding="utf-8"?>
<!-- Generator: Adobe Illustrator 22.1.0, SVG Export Plug-In . SVG Version: 6.00 Build 0)  -->
<svg version="1.1" id="Layer_1" xmlns="http://www.w3.org/2000/svg" xmlns:xlink="http://www.w3.org/1999/xlink" x="0px" y="0px"
	 viewBox="0 0 400 400" style="enable-background:new 0 0 400 400;" xml:space="preserve">
<style type="text/css">
	.st0{fill:#F5F5F5;}
	.st1{fill:#231F20;}
	.st2{fill:#FFFFFF;}
	.st3{fill:none;stroke:#231F20;stroke-width:2;stroke-miterlimit:10;}
	.st4{fill:#FFFFFF;stroke:#231F20;stroke-width:2;stroke-miterlimit:10;}
</style>
<g id="XMLID_5_">
	<g id="XMLID_2_">
		<polygon class="st0" points="138.9,347.5 52.5,261.1 52.5,138.9 138.9,52.5 261.1,52.5 347.5,138.9 347.5,261.1 261.1,347.5 		"/>
		<path class="st1" d="M260.7,53.5l85.8,85.8v121.4l-85.8,85.8H139.3l-85.8-85.8V139.3l85.8-85.8H260.7 M261.5,51.5h-0.8H139.3h-0.8
			l-0.6,0.6l-85.8,85.8l-0.6,0.6v0.8v121.4v0.8l0.6,0.6l85.8,85.8l0.6,0.6h0.8h121.4h0.8l0.6-0.6l85.8-85.8l0.6-0.6v-0.8V139.3v-0.8
			l-0.6-0.6l-85.8-85.8L261.5,51.5L261.5,51.5z"/>
	</g>
	<g id="XMLID_1_">
		<polygon class="st2" points="150.6,319.3 80.7,249.4 80.7,150.6 150.6,80.7 249.4,80.7 319.3,150.6 319.3,249.4 249.4,319.3 		"/>
		<path class="st1" d="M249,81.7l69.3,69.3V249L249,318.3H151L81.7,249V151L151,81.7H249 M249.8,79.7h-99.6l-70.5,70.5v99.6
			l70.5,70.5h99.6l70.5-70.5v-99.6L249.8,79.7L249.8,79.7z"/>
	</g>
	<polygon id="XMLID_3_" class="st3" points="127.5,375 25,272.5 25,127.5 127.5,25 272.5,25 375,127.5 375,272.5 272.5,375 	"/>
</g>
<circle id="XMLID_30_" class="st4" cx="254" cy="66.9" r="10.8"/>
<circle id="XMLID_4_" class="st4" cx="254" cy="333.1" r="10.8"/>
<circle id="XMLID_7_" class="st4" cx="145" cy="66.9" r="10.8"/>
<circle id="XMLID_6_" class="st4" cx="145" cy="333.1" r="10.8"/>
<circle id="XMLID_11_" class="st4" cx="332.6" cy="254.5" r="10.8"/>
<circle id="XMLID_10_" class="st4" cx="67.4" cy="254.5" r="10.8"/>
<circle id="XMLID_9_" class="st4" cx="332.6" cy="145.5" r="10.8"/>
<circle id="XMLID_8_" class="st4" cx="67.4" cy="145.5" r="10.8"/>
</svg>
